<svg width="48" height="61" viewBox="0 0 48 61" fill="none" xmlns="http://www.w3.org/2000/svg">
<path d="M23.3664 30.5C23.4576 29.8438 23.7558 29.2354 24.2164 28.7663C24.6769 28.2972 25.2747 27.9929 25.92 27.899C27.84 27.6257 30.6672 27.1718 34.824 26.435C30.672 25.7127 27.84 25.2638 25.92 24.9856C25.2736 24.8934 24.6742 24.5897 24.2126 24.1204C23.751 23.6511 23.4523 23.0418 23.3616 22.3846C23.088 20.4326 22.6416 17.5534 21.9216 13.3273C21.2064 17.5534 20.76 20.4326 20.4816 22.3846C20.3912 23.0411 20.0932 23.6499 19.6326 24.1191C19.1719 24.5883 18.5736 24.8924 17.928 24.9856C16.008 25.2638 13.176 25.7127 9.01923 26.4496C13.176 27.1767 16.0032 27.6306 17.928 27.9136C18.5738 28.0038 19.1734 28.3047 19.6365 28.7712C20.0996 29.2376 20.4012 29.8443 20.496 30.5C20.7696 32.452 21.216 35.3312 21.936 39.5573C22.6464 35.3312 23.0928 32.452 23.3664 30.5Z" fill="#414141"/>
<path d="M32.5968 18.7831C32.6453 18.4121 32.8126 18.0677 33.0728 17.8031C33.3331 17.5385 33.6719 17.3684 34.0368 17.3191C35.1024 17.1678 36.6768 16.9141 38.9856 16.509C36.6768 16.104 35.1024 15.8551 34.0368 15.699C33.6716 15.6505 33.3324 15.4806 33.072 15.2159C32.8115 14.9511 32.6445 14.6062 32.5968 14.235C32.4432 13.1516 32.1984 11.551 31.8 9.20367C31.4016 11.551 31.152 13.1516 31.0032 14.235C30.9555 14.6062 30.7884 14.9511 30.528 15.2159C30.2676 15.4806 29.9284 15.6505 29.5632 15.699C28.4976 15.8551 26.9232 16.104 24.6144 16.509C26.9232 16.9141 28.4976 17.1678 29.5632 17.3191C29.9281 17.3684 30.2668 17.5385 30.5271 17.8031C30.7874 18.0677 30.9547 18.4121 31.0032 18.7831C31.152 19.8714 31.4016 21.4671 31.8 23.8144C32.1984 21.472 32.4432 19.8714 32.5968 18.7831Z" fill="#414141"/>
<path d="M27.9984 35.5557C28.02 35.4022 28.0903 35.26 28.1986 35.1508C28.3069 35.0416 28.4473 34.9713 28.5984 34.9506C29.0496 34.8822 29.712 34.7798 30.6816 34.609C29.7216 34.4382 29.0496 34.3308 28.5984 34.2674C28.4486 34.2471 28.3093 34.1782 28.2012 34.071C28.0931 33.9637 28.0219 33.8237 27.9984 33.672C27.936 33.2182 27.8304 32.5447 27.6624 31.5541C27.4992 32.5301 27.3936 33.2182 27.3312 33.672C27.3098 33.8261 27.2397 33.9689 27.1315 34.0789C27.0233 34.189 26.8828 34.2602 26.7312 34.282C26.28 34.3454 25.6176 34.4528 24.648 34.6236C25.608 34.7944 26.28 34.8969 26.7312 34.9652C26.8821 34.9867 27.022 35.0573 27.1302 35.1663C27.2383 35.2754 27.3089 35.4171 27.3312 35.5703C27.3936 36.029 27.4992 36.7025 27.6624 37.6882C27.84 36.6878 27.936 36.0144 27.9984 35.5557Z" fill="#414141"/>
<path d="M15.24 20.5448C15.2616 20.3913 15.3319 20.2492 15.4402 20.1399C15.5485 20.0307 15.6888 19.9604 15.84 19.9397C16.2912 19.8714 16.9488 19.7689 17.9232 19.5981C16.9632 19.4273 16.2912 19.3199 15.84 19.2565C15.6881 19.2355 15.5472 19.1645 15.4389 19.0543C15.3305 18.9441 15.2606 18.8009 15.24 18.6465C15.1776 18.1926 15.072 17.5192 14.904 16.5286C14.736 17.5046 14.6352 18.1926 14.568 18.6465C14.5484 18.8005 14.4794 18.9436 14.3719 19.0538C14.2643 19.1641 14.1241 19.2353 13.9728 19.2565C13.5216 19.3199 12.8592 19.4273 11.8896 19.5981C12.8496 19.7689 13.5216 19.8714 13.9728 19.9397C14.1234 19.9606 14.2631 20.0311 14.3706 20.1404C14.478 20.2497 14.5474 20.3917 14.568 20.5448C14.6352 21.0035 14.736 21.677 14.904 22.6676C15.072 21.677 15.1776 20.984 15.24 20.5448Z" fill="#414141"/>
</svg>
