<svg width="28" height="28" viewBox="0 0 28 28" fill="none" xmlns="http://www.w3.org/2000/svg">
<path d="M14 0C6.3 0 0 6.3 0 14C0 21.7 6.3 28 14 28C21.7 28 28 21.7 28 14C28 6.3 21.7 0 14 0ZM14 3.5C19.81 3.5 24.5 8.19 24.5 14C24.5 19.81 19.81 24.5 14 24.5C8.19 24.5 3.5 19.81 3.5 14C3.5 8.19 8.19 3.5 14 3.5ZM14 7C13.02 7 12.25 7.77 12.25 8.75C12.25 9.73 13.02 10.5 14 10.5C14.98 10.5 15.75 9.73 15.75 8.75C15.75 7.77 14.98 7 14 7ZM8.19 10.5C7.90021 10.593 7.6397 10.7601 7.43418 10.9846C7.22867 11.2091 7.08526 11.4833 7.01811 11.7801C6.95096 12.077 6.9624 12.3862 7.05129 12.6773C7.14019 12.9684 7.30346 13.2313 7.525 13.44L10.71 16.625C10.64 16.905 10.5 17.185 10.5 17.5C10.5 19.425 12.075 21 14 21C15.925 21 17.5 19.425 17.5 17.5C17.5 15.575 15.925 14 14 14C13.685 14 13.405 14.14 13.125 14.21L9.94 11.025C9.7485 10.8131 9.50804 10.6512 9.2396 10.5536C8.97116 10.456 8.6829 10.4256 8.4 10.465C8.33006 10.4608 8.25994 10.4608 8.19 10.465V10.5ZM19.25 10.5C18.27 10.5 17.5 11.27 17.5 12.25C17.5 13.23 18.27 14 19.25 14C20.23 14 21 13.23 21 12.25C21 11.27 20.23 10.5 19.25 10.5Z" fill="#4A36EC"/>
</svg>
