<svg width="14" height="12" viewBox="0 0 14 12" fill="none" xmlns="http://www.w3.org/2000/svg">
<path d="M12.9748 2.49223C12.7823 2.04996 12.5047 1.64918 12.1576 1.31232C11.8103 0.974457 11.4007 0.705962 10.9513 0.521436C10.4852 0.329334 9.98529 0.231005 9.48061 0.232157C8.77257 0.232157 8.08177 0.424534 7.48145 0.787914C7.33783 0.87484 7.2014 0.970316 7.07214 1.07434C6.94289 0.970316 6.80645 0.87484 6.66283 0.787914C6.06251 0.424534 5.37171 0.232157 4.66367 0.232157C4.15383 0.232157 3.65979 0.329058 3.19303 0.521436C2.74207 0.706688 2.33563 0.973166 1.98664 1.31232C1.63908 1.6488 1.36144 2.04968 1.16946 2.49223C0.969827 2.95251 0.867859 3.4413 0.867859 3.94433C0.867859 4.41886 0.965519 4.91334 1.1594 5.41637C1.32169 5.83675 1.55435 6.2728 1.85164 6.71313C2.32271 7.40997 2.97042 8.13673 3.77468 8.87346C5.10745 10.0947 6.4273 10.9383 6.48331 10.9725L6.82368 11.1891C6.97448 11.2846 7.16837 11.2846 7.31916 11.1891L7.65954 10.9725C7.71555 10.9369 9.03396 10.0947 10.3682 8.87346C11.1724 8.13673 11.8201 7.40997 12.2912 6.71313C12.5885 6.2728 12.8226 5.83675 12.9834 5.41637C13.1773 4.91334 13.275 4.41886 13.275 3.94433C13.2764 3.4413 13.1745 2.95251 12.9748 2.49223Z" fill="#4A36EC"/>
</svg>
