<svg width="21" height="20" viewBox="0 0 21 20" fill="none" xmlns="http://www.w3.org/2000/svg">
<path opacity="0.3" d="M8.48691 16.181C11.4949 16.181 14.907 16.1706 17.0695 18.2615L18.5085 19.6528C18.7479 19.8843 19.0634 20 19.3899 20C20.0971 20 20.6086 19.474 20.6086 18.8006C20.6086 18.485 20.4997 18.1904 20.2604 17.959L18.9373 16.677C16.7774 14.5842 16.8545 11.098 16.8545 8.09048C16.8545 3.64019 13.0897 0 8.48691 0C3.87328 0 0.119263 3.64019 0.119263 8.09048C0.119263 12.5408 3.87328 16.181 8.48691 16.181ZM8.48691 14.4345C4.88523 14.4345 1.92554 11.5623 1.92554 8.09048C1.92554 4.61862 4.88523 1.74645 8.48691 1.74645C12.0777 1.74645 15.0483 4.61862 15.0483 8.09048C15.0483 11.5623 12.0777 14.4345 8.48691 14.4345Z" fill="#242424"/>
</svg>
