<svg width="30" height="28" viewBox="0 0 30 28" fill="none" xmlns="http://www.w3.org/2000/svg">
<path d="M0.996094 0.0349563V28H28.9611V19.6804C29.0182 19.4272 29.0182 19.1645 28.9611 18.9114V0H0.996094V0.0349563ZM4.49172 3.53059H25.4655V17.5131H20.2221C20.1174 17.5037 20.0121 17.5037 19.9075 17.5131C19.4439 17.5548 19.0159 17.779 18.7176 18.1363C18.4194 18.4935 18.2752 18.9547 18.3169 19.4182C18.3587 19.8818 18.5828 20.3098 18.9401 20.608C19.2974 20.9063 19.7585 21.0505 20.2221 21.0087H25.4655V24.5044H4.49172V3.53059ZM13.2308 7.02622C10.3294 7.02622 7.98735 9.36829 7.98735 12.2697C7.98735 15.7653 13.2308 21.0087 13.2308 21.0087C13.2308 21.0087 18.4742 15.7653 18.4742 12.2697C18.4742 9.36829 16.1322 7.02622 13.2308 7.02622ZM13.2308 10.5218C14.2096 10.5218 14.9786 11.2909 14.9786 12.2697C14.9786 13.2484 14.2096 14.0175 13.2308 14.0175C12.252 14.0175 11.483 13.2484 11.483 12.2697C11.483 11.2909 12.252 10.5218 13.2308 10.5218Z" fill="#9FCE62"/>
</svg>
